#!OML:ASF X:\für Bonn\!DataBase\2005_08_10_Bjorn_Final\c3d\bjorn.ASF
:FULLY-SPECIFIED
:DEGREES
94
root 2.68372 18.4028 5.04838 -194.084 1.90259 178.37
lowerback -11.3288 -0.662034 0.210068
upperback 8.3512 -0.145607 -2.56011
thorax 15.7801 0.336002 -2.99842
lowerneck 0.401912 1.66967 7.73043
upperneck 23.5408 4.73023 -2.09438
head 7.36444 3.67985 -1.58475
rclavicle -9.82742e-015 2.3059e-014
rhumerus -305.372 15.9611 280.545
rradius 77.1559
rwrist 25.5057
rhand -51.6221 36.5345
rfingers 7.12502
rthumb -24.1452 8.03409
lclavicle -9.82742e-015 2.3059e-014
lhumerus 48.9225 -23.9032 86.1252
lradius 83.3862
lwrist 25.1935
lhand -40.4531 -15.6992
lfingers 7.12502
lthumb -13.4046 13.8495
rfemur 9.94244 -2.35906 16.2694
rtibia 33.5908
rfoot -28.8064 9.90252
rtoes -7.94658
lfemur -13.1288 -7.55186 -15.185
ltibia 41.8071
lfoot -13.1085 2.18486
ltoes -23.8699
95
root 2.68628 18.3769 4.97313 -194.293 2.09605 178.469
lowerback -11.3027 -0.671913 0.194281
upperback 8.42754 -0.155113 -2.50995
thorax 15.856 0.330622 -2.9358
lowerneck 0.47431 1.71226 7.84947
upperneck 23.3851 4.77436 -2.17107
head 7.30752 3.69299 -1.63074
rclavicle -5.29264e-015 3.89618e-014
rhumerus -305.451 16.0851 280.653
rradius 78.3549
rwrist 25.5708
rhand -51.72 36.7971
rfingers 7.12502
rthumb -24.239 8.30915
lclavicle -5.29264e-015 3.89618e-014
lhumerus 48.99 -24.2749 85.7689
lradius 84.7435
lwrist 24.6356
lhand -40.7609 -16.8144
lfingers 7.12502
lthumb -13.7012 12.7145
rfemur 10.4371 -2.23569 16.406
rtibia 33.5838
rfoot -29.1027 9.83432
rtoes -8.29399
lfemur -13.2737 -7.78966 -14.9892
ltibia 41.7944
lfoot -13.0348 1.95261
ltoes -23.4029
96
root 2.68712 18.3484 4.89763 -194.513 2.29224 178.58
lowerback -11.2728 -0.6883 0.202194
upperback 8.51479 -0.176583 -2.45952
thorax 15.9423 0.323075 -2.88927
lowerneck 0.510789 1.77146 7.97055
upperneck 23.2622 4.84356 -2.25743
head 7.2696 3.71828 -1.6774
rclavicle 5.15598e-015 -2.0276e-014
rhumerus -305.519 16.2264 280.733
rradius 79.5114
rwrist 25.5795
rhand -51.8051 37.2357
rfingers 7.12502
rthumb -24.3206 8.7587
lclavicle 5.15598e-015 -2.0276e-014
lhumerus 49.0403 -24.6303 85.3884
lradius 86.0691
lwrist 24.2209
lhand -40.8817 -17.8548
lfingers 7.12502
lthumb -13.8176 11.6663
rfemur 10.9349 -2.11282 16.5448
rtibia 33.5987
rfoot -29.416 9.79606
rtoes -8.61042
lfemur -13.4192 -8.04043 -14.7662
ltibia 41.8134
lfoot -12.9756 1.63605
ltoes -22.8723
97
root 2.68707 18.3183 4.82101 -194.744 2.49684 178.737
lowerback -11.2432 -0.720131 0.241755
upperback 8.6114 -0.227721 -2.39083
thorax 16.0387 0.304132 -2.84742
lowerneck 0.536845 1.84706 8.08995
upperneck 23.1337 4.9367 -2.36944
head 7.23367 3.75133 -1.73051
rclavicle -2.75814e-015 1.74931e-014
rhumerus -305.566 16.4124 280.745
rradius 80.5854
rwrist 25.5724
rhand -51.7954 37.6873
rfingers 7.12502
rthumb -24.3114 9.20905
lclavicle -2.75814e-015 1.74931e-014
lhumerus 49.0497 -24.9492 84.9973
lradius 87.431
lwrist 23.8298
lhand -41.0475 -18.5369
lfingers 7.12502
lthumb -13.9774 10.9732
rfemur 11.4413 -2.02226 16.7166
rtibia 33.635
rfoot -29.7279 9.78678
rtoes -8.92728
lfemur -13.5593 -8.33508 -14.484
ltibia 41.8692
lfoot -12.9088 1.313
ltoes -22.161
98
root 2.68604 18.2865 4.74445 -194.964 2.71157 178.892
lowerback -11.2217 -0.747261 0.285132
upperback 8.71144 -0.271822 -2.32574
thorax 16.1453 0.289675 -2.81021
lowerneck 0.587339 1.92566 8.22812
upperneck 22.9563 5.02793 -2.48305
head 7.17821 3.78204 -1.78848
rclavicle 7.05686e-015 2.14687e-014
rhumerus -305.589 16.5916 280.744
rradius 81.5748
rwrist 25.5162
rhand -51.7347 38.0767
rfingers 7.12502
rthumb -24.2532 9.59066
lclavicle 7.05686e-015 2.14687e-014
lhumerus 49.0241 -25.2741 84.6195
lradius 88.774
lwrist 23.4456
lhand -41.1177 -18.9665
lfingers 7.12502
lthumb -14.045 10.5389
rfemur 11.9265 -1.91594 16.8976
rtibia 33.6902
rfoot -30.057 9.74746
rtoes -9.41737
lfemur -13.7148 -8.63414 -14.1806
ltibia 41.949
lfoot -12.8295 0.927917
ltoes -21.6431
